<?xml version="1.0" encoding="iso-8859-1"?>
<!-- Generator: Adobe Illustrator 16.0.0, SVG Export Plug-In . SVG Version: 6.00 Build 0)  -->
<!DOCTYPE svg PUBLIC "-//W3C//DTD SVG 1.1//EN" "http://www.w3.org/Graphics/SVG/1.1/DTD/svg11.dtd">
<svg version="1.1" id="Capa_1" xmlns="http://www.w3.org/2000/svg" xmlns:xlink="http://www.w3.org/1999/xlink" x="0px" y="0px"
	 width="611.999px" height="612px" viewBox="0 0 611.999 612" style="enable-background:new 0 0 611.999 612;" xml:space="preserve"
	>
<g>
	<g>
		<g>
			<path d="M598.801,224.984H13.199c-5.137,0-9.804-2.978-11.969-7.635c-2.165-4.656-1.431-10.147,1.88-14.07L143.552,36.713
				c2.508-2.978,6.199-4.694,10.09-4.694h304.722c3.892,0,7.588,1.716,10.09,4.694l140.437,166.566
				c3.311,3.928,4.044,9.414,1.874,14.07C608.605,222.007,603.933,224.984,598.801,224.984z M41.594,198.585h528.812L452.229,58.418
				H159.776L41.594,198.585z"/>
			<polygon points="306,579.98 3.104,220.29 23.294,203.285 306,539 588.705,203.285 608.896,220.29 			"/>
			<path d="M306,572.689c-5.602,0-10.586-3.531-12.444-8.812L170.959,216.178c-1.452-4.124-0.776-8.696,1.816-12.217L295.371,37.395
				c2.487-3.38,6.432-5.376,10.629-5.376c4.197,0,8.142,1.996,10.634,5.375L439.23,203.96c2.588,3.521,3.269,8.094,1.815,12.217
				L318.449,563.876C316.586,569.158,311.597,572.689,306,572.689z M198.176,213.987L306,519.796l107.823-305.811L306,67.489
				L198.176,213.987z"/>
		</g>
	</g>
</g>
<g>
</g>
<g>
</g>
<g>
</g>
<g>
</g>
<g>
</g>
<g>
</g>
<g>
</g>
<g>
</g>
<g>
</g>
<g>
</g>
<g>
</g>
<g>
</g>
<g>
</g>
<g>
</g>
<g>
</g>
</svg>
