<?xml version="1.0" encoding="iso-8859-1"?>
<!-- Generator: Adobe Illustrator 16.0.0, SVG Export Plug-In . SVG Version: 6.00 Build 0)  -->
<!DOCTYPE svg PUBLIC "-//W3C//DTD SVG 1.1//EN" "http://www.w3.org/Graphics/SVG/1.1/DTD/svg11.dtd">
<svg version="1.1" id="Capa_1" xmlns="http://www.w3.org/2000/svg" xmlns:xlink="http://www.w3.org/1999/xlink" x="0px" y="0px"
	 width="611.999px" height="611.998px" viewBox="0 0 611.999 611.998" style="enable-background:new 0 0 611.999 611.998;"
	 xml:space="preserve">
<g>
	<path d="M596.583,15.454c-10.357-10.23-23.229-14.931-38.16-14.931c-15.597,0-31.901,4.906-49.452,14.599
		c-17.296,9.551-32.851,20.574-46.458,32.524h-0.665c-2.655,2.322-10.953,10.287-25.219,24.553
		c-14.272,14.272-26.217,26.223-35.845,36.51L112.401,26.406c-6.896-1.968-12.928,0.014-17.593,4.645L46.687,78.839
		c-4.326,4.297-5.805,9.268-4.977,15.597c0.829,6.287,3.979,10.627,9.629,13.607L280.32,228.839L161.514,347.978l-95.91,3.32
		c-4.645,0.164-8.637,1.643-12.276,5.311L5.872,404.397c-4.312,4.34-6.641,9.289-5.643,16.262
		c1.657,6.967,5.31,11.611,11.618,13.602l117.142,48.787l48.787,117.148c2.421,5.812,6.634,9.621,13.607,11.279h3.313
		c4.977,0,9.296-1.658,12.942-5.311l47.456-47.457c3.653-3.645,5.494-7.965,5.643-12.275l3.32-95.91l118.807-118.807l121.128,228.99
		c2.988,5.643,7.32,8.793,13.607,9.621c6.329,0.836,11.271-1.316,15.597-5.643l47.456-47.457c4.978-4.977,6.945-10.697,4.978-17.586
		l-82.296-288.389l59.732-59.739c10.287-10.287,21.699-24.149,33.183-45.134c5.777-10.542,10.032-20.886,12.942-31.194
		C614.913,54.966,612.449,31.114,596.583,15.454z M537.183,125.63l-67.039,67.372c-5.628,5.657-6.811,11.122-4.977,17.586
		l81.637,288.388l-22.563,22.238L403.438,292.89c-2.98-5.643-7.299-8.963-12.941-9.621c-6.301-1.331-11.611,0.325-16.263,4.977
		l-141.37,141.37c-2.987,2.986-4.644,6.973-5.643,11.949l-3.32,95.904l-22.896,23.236l-41.48-98.566
		c-1.331-4.645-4.553-8.184-9.629-10.287L51.338,411.03l23.229-22.895l95.578-3.654c5.643-0.99,9.622-2.654,12.276-5.309
		l141.37-141.371c4.651-4.645,6.308-9.954,4.984-16.262c-0.666-5.643-3.986-9.954-9.629-12.942L90.829,87.47l22.231-22.238
		l288.389,81.637c6.464,1.833,11.951,0.666,17.587-4.977l28.545-28.539l26.217-25.884l11.278-11.285l1.331-0.666
		c27.873-23.895,55.088-38.16,72.016-38.16c5.969,0,9.954,1.324,11.611,3.979C588.951,59.922,548.935,113.821,537.183,125.63z"/>
</g>
<g>
</g>
<g>
</g>
<g>
</g>
<g>
</g>
<g>
</g>
<g>
</g>
<g>
</g>
<g>
</g>
<g>
</g>
<g>
</g>
<g>
</g>
<g>
</g>
<g>
</g>
<g>
</g>
<g>
</g>
</svg>
